<svg xmlns="http://www.w3.org/2000/svg" width="1600" height="900" viewBox="0 0 1600 900" role="img" aria-labelledby="title desc"><title id="title">Simulation environment and observation sources</title><desc id="desc">Component-level view of the existing arena and simulated sensor sources; not a to-scale map.</desc><defs><marker id="arrow" viewBox="0 0 10 10" refX="9" refY="5" markerWidth="7" markerHeight="7" orient="auto"><path d="M0 0L10 5L0 10Z" fill="#253341"/></marker></defs><rect width="1600" height="900" fill="white"/><g font-family="Arial, Noto Sans CJK KR, sans-serif" fill="#16232f">
<text x="55" y="68" font-size="35" font-weight="700" text-anchor="start" fill="#253341">Simulation environment and observation sources</text>
<g data-block="true">
<rect x="55" y="330" width="300" height="155" rx="3" fill="#f1f4f6" stroke="#253341" stroke-width="2"/>
<text x="205.0" y="373" font-size="27" font-weight="700" text-anchor="middle" fill="#253341">Arena contract</text>
<text x="205.0" y="413" font-size="23" font-weight="400" text-anchor="middle" fill="#253341">Scene bounds</text>
<text x="205.0" y="446" font-size="23" font-weight="400" text-anchor="middle" fill="#253341">Episode configuration</text>
</g>
<g data-block="true">
<rect x="480" y="180" width="320" height="145" rx="3" fill="white" stroke="#253341" stroke-width="2"/>
<text x="640.0" y="223" font-size="27" font-weight="700" text-anchor="middle" fill="#253341">Static scene</text>
<text x="640.0" y="263" font-size="23" font-weight="400" text-anchor="middle" fill="#253341">Obstacle layout</text>
<text x="640.0" y="296" font-size="23" font-weight="400" text-anchor="middle" fill="#253341">Arena boundaries</text>
</g>
<g data-block="true">
<rect x="480" y="515" width="320" height="145" rx="3" fill="white" stroke="#253341" stroke-width="2"/>
<text x="640.0" y="558" font-size="27" font-weight="700" text-anchor="middle" fill="#253341">Dynamic scene</text>
<text x="640.0" y="598" font-size="23" font-weight="400" text-anchor="middle" fill="#253341">Vehicle state</text>
<text x="640.0" y="631" font-size="23" font-weight="400" text-anchor="middle" fill="#253341">Moving-target state</text>
</g>
<path d="M355 407 L415 407 L415 253 L480 253" fill="none" stroke="#253341" stroke-width="2.5" marker-end="url(#arrow)"/>
<path d="M415 407 L415 588 L480 588" fill="none" stroke="#253341" stroke-width="2.5" marker-end="url(#arrow)"/>
<circle cx="415" cy="407" r="4" fill="#253341"/>
<g data-block="true">
<rect x="925" y="330" width="300" height="155" rx="3" fill="#eaf1f8" stroke="#253341" stroke-width="2"/>
<text x="1075.0" y="373" font-size="27" font-weight="700" text-anchor="middle" fill="#253341">Simulated sensing</text>
<text x="1075.0" y="413" font-size="23" font-weight="400" text-anchor="middle" fill="#253341">Camera / depth</text>
<text x="1075.0" y="446" font-size="23" font-weight="400" text-anchor="middle" fill="#253341">LiDAR returns</text>
</g>
<path d="M800 253 L865 253 L865 375 L925 375" fill="none" stroke="#253341" stroke-width="2.5" marker-end="url(#arrow)"/>
<path d="M800 588 L865 588 L865 443 L925 443" fill="none" stroke="#253341" stroke-width="2.5" marker-end="url(#arrow)"/>
<g data-block="true">
<rect x="1315" y="330" width="230" height="155" rx="3" fill="#f1f4f6" stroke="#253341" stroke-width="2"/>
<text x="1430.0" y="373" font-size="27" font-weight="700" text-anchor="middle" fill="#253341">Observations</text>
<text x="1430.0" y="413" font-size="23" font-weight="400" text-anchor="middle" fill="#253341">Sensor outputs</text>
<text x="1430.0" y="446" font-size="23" font-weight="400" text-anchor="middle" fill="#253341">Ego-state fields</text>
</g>
<path d="M1225 407 L1315 407" fill="none" stroke="#253341" stroke-width="2.5" marker-end="url(#arrow)"/>
<path d="M640 660 L640 720 L1430 720 L1430 485" fill="none" stroke="#253341" stroke-width="2.5" marker-end="url(#arrow)"/>
<text x="1100" y="752" font-size="23" font-weight="400" text-anchor="middle" fill="#253341">Ego state</text>
<path d="M55 784H1545" stroke="#b6c0c8"/>
<text x="55" y="824" font-size="22" font-weight="400" text-anchor="start" fill="#52606d">Block diagram, not spatial scale. Arena dimensions and sensor ranges remain in the text.</text>
</g></svg>
